<?xml version="1.0" ?><!DOCTYPE svg  PUBLIC '-//W3C//DTD SVG 1.1//EN'  'http://www.w3.org/Graphics/SVG/1.1/DTD/svg11.dtd'><svg enable-background="new 0 0 48 48" height="48px" id="Layer_1" version="1.1" viewBox="0 0 48 48" width="48px" xml:space="preserve" xmlns="http://www.w3.org/2000/svg" xmlns:xlink="http://www.w3.org/1999/xlink"><g id="Layer_4"><path d="M24,0C10.745,0,0,10.745,0,24c0,13.254,10.745,24,24,24s24-10.746,24-24C48,10.745,37.255,0,24,0z    M35.993,19.071L24.516,30.55l-0.006-0.005l-0.513,0.514l-0.007-0.008l-0.007,0.008l-1.151-1.15l0.007-0.008L12.008,19.068   l0.002-0.002l-0.003-0.003l2.12-2.121l9.877,9.876l9.869-9.868l1.057,1.056l0.004-0.004l1.061,1.06l-0.005,0.006L35.993,19.071z" fill="#241F20"/></g></svg>