<svg id="visual" viewBox="0 0 900 600" width="900" height="600" xmlns="http://www.w3.org/2000/svg" xmlns:xlink="http://www.w3.org/1999/xlink" version="1.1"><rect x="0" y="0" width="900" height="600" fill="#ffffff"></rect><path d="M0 344L16.7 331.7C33.3 319.3 66.7 294.7 100 292.8C133.3 291 166.7 312 200 322.8C233.3 333.7 266.7 334.3 300 329.7C333.3 325 366.7 315 400 306.7C433.3 298.3 466.7 291.7 500 303C533.3 314.3 566.7 343.7 600 353.3C633.3 363 666.7 353 700 339.5C733.3 326 766.7 309 800 309.7C833.3 310.3 866.7 328.7 883.3 337.8L900 347L900 601L883.3 601C866.7 601 833.3 601 800 601C766.7 601 733.3 601 700 601C666.7 601 633.3 601 600 601C566.7 601 533.3 601 500 601C466.7 601 433.3 601 400 601C366.7 601 333.3 601 300 601C266.7 601 233.3 601 200 601C166.7 601 133.3 601 100 601C66.7 601 33.3 601 16.7 601L0 601Z" fill="#64dfdf"></path><path d="M0 370L16.7 375.2C33.3 380.3 66.7 390.7 100 397.8C133.3 405 166.7 409 200 397.2C233.3 385.3 266.7 357.7 300 350C333.3 342.3 366.7 354.7 400 352C433.3 349.3 466.7 331.7 500 333.8C533.3 336 566.7 358 600 361.5C633.3 365 666.7 350 700 349.7C733.3 349.3 766.7 363.7 800 364C833.3 364.3 866.7 350.7 883.3 343.8L900 337L900 601L883.3 601C866.7 601 833.3 601 800 601C766.7 601 733.3 601 700 601C666.7 601 633.3 601 600 601C566.7 601 533.3 601 500 601C466.7 601 433.3 601 400 601C366.7 601 333.3 601 300 601C266.7 601 233.3 601 200 601C166.7 601 133.3 601 100 601C66.7 601 33.3 601 16.7 601L0 601Z" fill="#00cceb"></path><path d="M0 427L16.7 417.2C33.3 407.3 66.7 387.7 100 378C133.3 368.3 166.7 368.7 200 379.7C233.3 390.7 266.7 412.3 300 413C333.3 413.7 366.7 393.3 400 386C433.3 378.7 466.7 384.3 500 389.3C533.3 394.3 566.7 398.7 600 404.2C633.3 409.7 666.7 416.3 700 416.7C733.3 417 766.7 411 800 403.2C833.3 395.3 866.7 385.7 883.3 380.8L900 376L900 601L883.3 601C866.7 601 833.3 601 800 601C766.7 601 733.3 601 700 601C666.7 601 633.3 601 600 601C566.7 601 533.3 601 500 601C466.7 601 433.3 601 400 601C366.7 601 333.3 601 300 601C266.7 601 233.3 601 200 601C166.7 601 133.3 601 100 601C66.7 601 33.3 601 16.7 601L0 601Z" fill="#00b7f5"></path><path d="M0 426L16.7 429.8C33.3 433.7 66.7 441.3 100 447.7C133.3 454 166.7 459 200 462C233.3 465 266.7 466 300 460C333.3 454 366.7 441 400 435.3C433.3 429.7 466.7 431.3 500 432.8C533.3 434.3 566.7 435.7 600 440.7C633.3 445.7 666.7 454.3 700 447.8C733.3 441.3 766.7 419.7 800 408.7C833.3 397.7 866.7 397.3 883.3 397.2L900 397L900 601L883.3 601C866.7 601 833.3 601 800 601C766.7 601 733.3 601 700 601C666.7 601 633.3 601 600 601C566.7 601 533.3 601 500 601C466.7 601 433.3 601 400 601C366.7 601 333.3 601 300 601C266.7 601 233.3 601 200 601C166.7 601 133.3 601 100 601C66.7 601 33.3 601 16.7 601L0 601Z" fill="#009df6"></path><path d="M0 495L16.7 492.2C33.3 489.3 66.7 483.7 100 478.8C133.3 474 166.7 470 200 469.3C233.3 468.7 266.7 471.3 300 469.8C333.3 468.3 366.7 462.7 400 459.2C433.3 455.7 466.7 454.3 500 462.5C533.3 470.7 566.7 488.3 600 495.2C633.3 502 666.7 498 700 494C733.3 490 766.7 486 800 478.3C833.3 470.7 866.7 459.3 883.3 453.7L900 448L900 601L883.3 601C866.7 601 833.3 601 800 601C766.7 601 733.3 601 700 601C666.7 601 633.3 601 600 601C566.7 601 533.3 601 500 601C466.7 601 433.3 601 400 601C366.7 601 333.3 601 300 601C266.7 601 233.3 601 200 601C166.7 601 133.3 601 100 601C66.7 601 33.3 601 16.7 601L0 601Z" fill="#0f7fee"></path><path d="M0 506L16.7 505.7C33.3 505.3 66.7 504.7 100 501.2C133.3 497.7 166.7 491.3 200 489.8C233.3 488.3 266.7 491.7 300 492.2C333.3 492.7 366.7 490.3 400 495.5C433.3 500.7 466.7 513.3 500 514.5C533.3 515.7 566.7 505.3 600 503C633.3 500.7 666.7 506.3 700 508.7C733.3 511 766.7 510 800 505.3C833.3 500.7 866.7 492.3 883.3 488.2L900 484L900 601L883.3 601C866.7 601 833.3 601 800 601C766.7 601 733.3 601 700 601C666.7 601 633.3 601 600 601C566.7 601 533.3 601 500 601C466.7 601 433.3 601 400 601C366.7 601 333.3 601 300 601C266.7 601 233.3 601 200 601C166.7 601 133.3 601 100 601C66.7 601 33.3 601 16.7 601L0 601Z" fill="#445dde"></path><path d="M0 538L16.7 537.5C33.3 537 66.7 536 100 540.8C133.3 545.7 166.7 556.3 200 558.2C233.3 560 266.7 553 300 546.7C333.3 540.3 366.7 534.7 400 532.5C433.3 530.3 466.7 531.7 500 531.3C533.3 531 566.7 529 600 532.5C633.3 536 666.7 545 700 545.7C733.3 546.3 766.7 538.7 800 540.2C833.3 541.7 866.7 552.3 883.3 557.7L900 563L900 601L883.3 601C866.7 601 833.3 601 800 601C766.7 601 733.3 601 700 601C666.7 601 633.3 601 600 601C566.7 601 533.3 601 500 601C466.7 601 433.3 601 400 601C366.7 601 333.3 601 300 601C266.7 601 233.3 601 200 601C166.7 601 133.3 601 100 601C66.7 601 33.3 601 16.7 601L0 601Z" fill="#6930c3"></path></svg>