<svg id="visual" viewBox="0 0 1440 900" width="1440" height="900" xmlns="http://www.w3.org/2000/svg" xmlns:xlink="http://www.w3.org/1999/xlink" version="1.1"><path d="M0 130L34.3 143.2C68.7 156.3 137.3 182.7 205.8 193C274.3 203.3 342.7 197.7 411.2 199.2C479.7 200.7 548.3 209.3 617 215.3C685.7 221.3 754.3 224.7 823 213.5C891.7 202.3 960.3 176.7 1028.8 172.2C1097.3 167.7 1165.7 184.3 1234.2 197.2C1302.7 210 1371.3 219 1405.7 223.5L1440 228L1440 0L1405.7 0C1371.3 0 1302.7 0 1234.2 0C1165.7 0 1097.3 0 1028.8 0C960.3 0 891.7 0 823 0C754.3 0 685.7 0 617 0C548.3 0 479.7 0 411.2 0C342.7 0 274.3 0 205.8 0C137.3 0 68.7 0 34.3 0L0 0Z" fill="#64dfdf" stroke-linecap="round" stroke-linejoin="miter"></path></svg>