<svg id="visual" viewBox="0 0 900 600" width="900" height="600" xmlns="http://www.w3.org/2000/svg" xmlns:xlink="http://www.w3.org/1999/xlink" version="1.1"><rect x="0" y="0" width="900" height="600" fill="#ffffff"></rect><path d="M0 339L16.7 324.2C33.3 309.3 66.7 279.7 100 287.3C133.3 295 166.7 340 200 343.2C233.3 346.3 266.7 307.7 300 277.7C333.3 247.7 366.7 226.3 400 239.7C433.3 253 466.7 301 500 357.8C533.3 414.7 566.7 480.3 600 475.7C633.3 471 666.7 396 700 357.2C733.3 318.3 766.7 315.7 800 321.8C833.3 328 866.7 343 883.3 350.5L900 358L900 601L883.3 601C866.7 601 833.3 601 800 601C766.7 601 733.3 601 700 601C666.7 601 633.3 601 600 601C566.7 601 533.3 601 500 601C466.7 601 433.3 601 400 601C366.7 601 333.3 601 300 601C266.7 601 233.3 601 200 601C166.7 601 133.3 601 100 601C66.7 601 33.3 601 16.7 601L0 601Z" fill="#64dfdf"></path><path d="M0 479L16.7 483.3C33.3 487.7 66.7 496.3 100 505.8C133.3 515.3 166.7 525.7 200 538.2C233.3 550.7 266.7 565.3 300 530.2C333.3 495 366.7 410 400 376.3C433.3 342.7 466.7 360.3 500 375.8C533.3 391.3 566.7 404.7 600 420.3C633.3 436 666.7 454 700 459.8C733.3 465.7 766.7 459.3 800 464.8C833.3 470.3 866.7 487.7 883.3 496.3L900 505L900 601L883.3 601C866.7 601 833.3 601 800 601C766.7 601 733.3 601 700 601C666.7 601 633.3 601 600 601C566.7 601 533.3 601 500 601C466.7 601 433.3 601 400 601C366.7 601 333.3 601 300 601C266.7 601 233.3 601 200 601C166.7 601 133.3 601 100 601C66.7 601 33.3 601 16.7 601L0 601Z" fill="#009df6"></path><path d="M0 403L16.7 425.2C33.3 447.3 66.7 491.7 100 518.8C133.3 546 166.7 556 200 536.2C233.3 516.3 266.7 466.7 300 454.8C333.3 443 366.7 469 400 476.5C433.3 484 466.7 473 500 482C533.3 491 566.7 520 600 517.3C633.3 514.7 666.7 480.3 700 480.8C733.3 481.3 766.7 516.7 800 530.7C833.3 544.7 866.7 537.3 883.3 533.7L900 530L900 601L883.3 601C866.7 601 833.3 601 800 601C766.7 601 733.3 601 700 601C666.7 601 633.3 601 600 601C566.7 601 533.3 601 500 601C466.7 601 433.3 601 400 601C366.7 601 333.3 601 300 601C266.7 601 233.3 601 200 601C166.7 601 133.3 601 100 601C66.7 601 33.3 601 16.7 601L0 601Z" fill="#6930c3"></path></svg>