<svg id="visual" viewBox="0 0 1440 900" width="1440" height="900" xmlns="http://www.w3.org/2000/svg" xmlns:xlink="http://www.w3.org/1999/xlink" version="1.1"><path d="M0 555L34.3 570C68.7 585 137.3 615 205.8 614.7C274.3 614.3 342.7 583.7 411.2 573.8C479.7 564 548.3 575 617 590.8C685.7 606.7 754.3 627.3 823 635.5C891.7 643.7 960.3 639.3 1028.8 628.2C1097.3 617 1165.7 599 1234.2 584.8C1302.7 570.7 1371.3 560.3 1405.7 555.2L1440 550L1440 901L1405.7 901C1371.3 901 1302.7 901 1234.2 901C1165.7 901 1097.3 901 1028.8 901C960.3 901 891.7 901 823 901C754.3 901 685.7 901 617 901C548.3 901 479.7 901 411.2 901C342.7 901 274.3 901 205.8 901C137.3 901 68.7 901 34.3 901L0 901Z" fill="#64dfdf"></path><path d="M0 682L34.3 666.8C68.7 651.7 137.3 621.3 205.8 616.7C274.3 612 342.7 633 411.2 637C479.7 641 548.3 628 617 638.2C685.7 648.3 754.3 681.7 823 692.8C891.7 704 960.3 693 1028.8 693.8C1097.3 694.7 1165.7 707.3 1234.2 699.8C1302.7 692.3 1371.3 664.7 1405.7 650.8L1440 637L1440 901L1405.7 901C1371.3 901 1302.7 901 1234.2 901C1165.7 901 1097.3 901 1028.8 901C960.3 901 891.7 901 823 901C754.3 901 685.7 901 617 901C548.3 901 479.7 901 411.2 901C342.7 901 274.3 901 205.8 901C137.3 901 68.7 901 34.3 901L0 901Z" fill="#00c0f3"></path><path d="M0 661L34.3 669.8C68.7 678.7 137.3 696.3 205.8 700.3C274.3 704.3 342.7 694.7 411.2 700.3C479.7 706 548.3 727 617 724.2C685.7 721.3 754.3 694.7 823 684.7C891.7 674.7 960.3 681.3 1028.8 685C1097.3 688.7 1165.7 689.3 1234.2 687.7C1302.7 686 1371.3 682 1405.7 680L1440 678L1440 901L1405.7 901C1371.3 901 1302.7 901 1234.2 901C1165.7 901 1097.3 901 1028.8 901C960.3 901 891.7 901 823 901C754.3 901 685.7 901 617 901C548.3 901 479.7 901 411.2 901C342.7 901 274.3 901 205.8 901C137.3 901 68.7 901 34.3 901L0 901Z" fill="#0097f8"></path><path d="M0 727L34.3 733.8C68.7 740.7 137.3 754.3 205.8 757.7C274.3 761 342.7 754 411.2 748C479.7 742 548.3 737 617 740.8C685.7 744.7 754.3 757.3 823 770.8C891.7 784.3 960.3 798.7 1028.8 803.8C1097.3 809 1165.7 805 1234.2 798C1302.7 791 1371.3 781 1405.7 776L1440 771L1440 901L1405.7 901C1371.3 901 1302.7 901 1234.2 901C1165.7 901 1097.3 901 1028.8 901C960.3 901 891.7 901 823 901C754.3 901 685.7 901 617 901C548.3 901 479.7 901 411.2 901C342.7 901 274.3 901 205.8 901C137.3 901 68.7 901 34.3 901L0 901Z" fill="#3c63e5"></path><path d="M0 820L34.3 818.7C68.7 817.3 137.3 814.7 205.8 816.5C274.3 818.3 342.7 824.7 411.2 824.5C479.7 824.3 548.3 817.7 617 821.3C685.7 825 754.3 839 823 835C891.7 831 960.3 809 1028.8 800.8C1097.3 792.7 1165.7 798.3 1234.2 802.2C1302.7 806 1371.3 808 1405.7 809L1440 810L1440 901L1405.7 901C1371.3 901 1302.7 901 1234.2 901C1165.7 901 1097.3 901 1028.8 901C960.3 901 891.7 901 823 901C754.3 901 685.7 901 617 901C548.3 901 479.7 901 411.2 901C342.7 901 274.3 901 205.8 901C137.3 901 68.7 901 34.3 901L0 901Z" fill="#7400b8"></path></svg>