<svg id="visual" viewBox="0 0 1440 900" width="1440" height="900" xmlns="http://www.w3.org/2000/svg" xmlns:xlink="http://www.w3.org/1999/xlink" version="1.1"><path d="M0 343L34.3 328C68.7 313 137.3 283 205.8 283.3C274.3 283.7 342.7 314.3 411.2 324.2C479.7 334 548.3 323 617 307.2C685.7 291.3 754.3 270.7 823 262.5C891.7 254.3 960.3 258.7 1028.8 269.8C1097.3 281 1165.7 299 1234.2 313.2C1302.7 327.3 1371.3 337.7 1405.7 342.8L1440 348L1440 0L1405.7 0C1371.3 0 1302.7 0 1234.2 0C1165.7 0 1097.3 0 1028.8 0C960.3 0 891.7 0 823 0C754.3 0 685.7 0 617 0C548.3 0 479.7 0 411.2 0C342.7 0 274.3 0 205.8 0C137.3 0 68.7 0 34.3 0L0 0Z" fill="#64dfdf"></path><path d="M0 216L34.3 231.2C68.7 246.3 137.3 276.7 205.8 281.3C274.3 286 342.7 265 411.2 261C479.7 257 548.3 270 617 259.8C685.7 249.7 754.3 216.3 823 205.2C891.7 194 960.3 205 1028.8 204.2C1097.3 203.3 1165.7 190.7 1234.2 198.2C1302.7 205.7 1371.3 233.3 1405.7 247.2L1440 261L1440 0L1405.7 0C1371.3 0 1302.7 0 1234.2 0C1165.7 0 1097.3 0 1028.8 0C960.3 0 891.7 0 823 0C754.3 0 685.7 0 617 0C548.3 0 479.7 0 411.2 0C342.7 0 274.3 0 205.8 0C137.3 0 68.7 0 34.3 0L0 0Z" fill="#00c0f3"></path><path d="M0 237L34.3 228.2C68.7 219.3 137.3 201.7 205.8 197.7C274.3 193.7 342.7 203.3 411.2 197.7C479.7 192 548.3 171 617 173.8C685.7 176.7 754.3 203.3 823 213.3C891.7 223.3 960.3 216.7 1028.8 213C1097.3 209.3 1165.7 208.7 1234.2 210.3C1302.7 212 1371.3 216 1405.7 218L1440 220L1440 0L1405.7 0C1371.3 0 1302.7 0 1234.2 0C1165.7 0 1097.3 0 1028.8 0C960.3 0 891.7 0 823 0C754.3 0 685.7 0 617 0C548.3 0 479.7 0 411.2 0C342.7 0 274.3 0 205.8 0C137.3 0 68.7 0 34.3 0L0 0Z" fill="#0097f8"></path><path d="M0 171L34.3 164.2C68.7 157.3 137.3 143.7 205.8 140.3C274.3 137 342.7 144 411.2 150C479.7 156 548.3 161 617 157.2C685.7 153.3 754.3 140.7 823 127.2C891.7 113.7 960.3 99.3 1028.8 94.2C1097.3 89 1165.7 93 1234.2 100C1302.7 107 1371.3 117 1405.7 122L1440 127L1440 0L1405.7 0C1371.3 0 1302.7 0 1234.2 0C1165.7 0 1097.3 0 1028.8 0C960.3 0 891.7 0 823 0C754.3 0 685.7 0 617 0C548.3 0 479.7 0 411.2 0C342.7 0 274.3 0 205.8 0C137.3 0 68.7 0 34.3 0L0 0Z" fill="#3c63e5"></path><path d="M0 78L34.3 79.3C68.7 80.7 137.3 83.3 205.8 81.5C274.3 79.7 342.7 73.3 411.2 73.5C479.7 73.7 548.3 80.3 617 76.7C685.7 73 754.3 59 823 63C891.7 67 960.3 89 1028.8 97.2C1097.3 105.3 1165.7 99.7 1234.2 95.8C1302.7 92 1371.3 90 1405.7 89L1440 88L1440 0L1405.7 0C1371.3 0 1302.7 0 1234.2 0C1165.7 0 1097.3 0 1028.8 0C960.3 0 891.7 0 823 0C754.3 0 685.7 0 617 0C548.3 0 479.7 0 411.2 0C342.7 0 274.3 0 205.8 0C137.3 0 68.7 0 34.3 0L0 0Z" fill="#7400b8"></path></svg>